M48
;Layer_Color=9474304
;FILE_FORMAT=2:5
INCH,LZ
;TYPE=PLATED
T1F00S00C0.02362
T2F00S00C0.03543
T3F00S00C0.03937
T4F00S00C0.05512
T5F00S00C0.10236
T6F00S00C0.12598
%
T01
X03285Y0010591
X0342Y00275
X035
X03535Y00185
X0362Y00145
X037
X03785
X0386
X0405
X04145
X0419Y0044
X041
X04145Y00535
X04035
X04255
X04385Y00555
X04455Y00615
X0452Y00685
X0456Y00965
Y0108
X0423
Y00965
X0411Y0082
X0402Y008
X03795Y00785
X037Y00715
X03635Y0065
X0329Y0070591
X0332Y0138091
X0436Y00285
X03085Y0034091
X03
X0292
X02755Y0034591
Y0044591
Y005459
Y0064591
Y007459
Y0084591
Y0094591
Y0104591
Y0114591
Y0124591
Y0134591
Y0144591
X02655
X02555
X02455
X02355
Y0134591
X02455
X02555
X02655
Y0124591
X02555
X02455
X02355
Y0114591
X02455
X02555
X02655
Y0104591
X02555
X02455
X02355
Y0094591
X02455
X02555
X02655
Y0084591
X02555
X02455
X02355
Y007459
X02455
X02555
X02655
Y0064591
X02555
X02455
X02355
Y005459
X02455
X02555
X02655
Y0044591
X02555
X02455
X02355
Y0034591
X02455
X02555
X02655
Y002459
X02755
Y0014591
X02655
X02455
X02355
Y002459
X02455
X0292Y006209
X03
X03085Y006159
X03195Y0070091
X0306Y008159
X03Y0125091
X0309Y0138091
X03195
X03185Y0010591
X02755Y0154591
Y0164591
Y0174591
Y0184591
Y0194591
Y0204591
Y0214591
Y022459
Y0234591
X02655
X02555
X02455
X02355
Y022459
X02455
X02555
X02655
Y0214591
X02555
X02455
X02355
Y0204591
X02455
X02555
X02655
Y0194591
X02555
X02455
X02355
Y0184591
X02455
X02555
X02655
Y0174591
X02555
X02455
X02355
Y0164591
X02455
X02555
X02655
Y0154591
X02555
X02455
X02355
Y024459
X02455
Y0254591
X02355
X02655
Y024459
X02755
Y0254591
X032Y0203
X03305
X03485Y0218
T02
X0389Y0138591
X0399
X0154Y016
Y017
Y018
Y019
X01595Y02135
Y02235
X01245Y019
Y018
Y017
Y016
X00875Y0159
Y0169
Y0179
X00775
Y0169
Y0159
X04025Y0208
X04125
T03
X0401339Y0166894
X0401339Y0166894
Y0167681
Y0168468
Y0169256
Y0170043
Y0170831
Y0171618
Y0172406
Y0173193
Y017398
Y0174768
Y0175555
Y0176736
X041Y01915
X0410787
X0411575
X0412362
X041315
X0413937
X0414724
X0415512
X0416299
X0417087
X0417874
X0425748Y0175752
Y0174965
Y0174177
Y017339
Y0172602
Y0171815
Y0171028
Y017024
Y0169453
Y0168665
Y0167878
T04
X0412008Y0028508
X04395Y0103
X0325Y02175
T05
X0395Y00115
X0429016
Y0045516
X0395
X0422492Y0085992
X0456508
Y0120008
X0422492
X0307992Y0200492
Y0234508
X0342008
Y0200492
T06
X0453035Y0045417
X02555Y0021402
X0019965Y0045417
Y0222583
X02555Y0247779
X0453035Y0222583
M30
