%FSLAX25Y25*%
%MOIN*%
G70*
G01*
G75*
G04 Layer_Color=16711935*
%ADD10O,0.08661X0.02362*%
%ADD11R,0.05709X0.02165*%
%ADD12R,0.05906X0.04331*%
%ADD13R,0.04331X0.05906*%
%ADD14O,0.05906X0.02362*%
%ADD15C,0.01969*%
%ADD16C,0.03150*%
%ADD17C,0.03937*%
%ADD18C,0.01181*%
%ADD19O,0.05512X0.01378*%
%ADD20R,0.16142X0.10236*%
%ADD21R,0.09449X0.10827*%
%ADD22R,0.04331X0.05906*%
G04:AMPARAMS|DCode=23|XSize=39.37mil|YSize=78.74mil|CornerRadius=9.84mil|HoleSize=0mil|Usage=FLASHONLY|Rotation=90.000|XOffset=0mil|YOffset=0mil|HoleType=Round|Shape=RoundedRectangle|*
%AMROUNDEDRECTD23*
21,1,0.03937,0.05906,0,0,90.0*
21,1,0.01969,0.07874,0,0,90.0*
1,1,0.01969,0.02953,0.00984*
1,1,0.01969,0.02953,-0.00984*
1,1,0.01969,-0.02953,-0.00984*
1,1,0.01969,-0.02953,0.00984*
%
%ADD23ROUNDEDRECTD23*%
G04:AMPARAMS|DCode=24|XSize=2559.05mil|YSize=551.18mil|CornerRadius=137.8mil|HoleSize=0mil|Usage=FLASHONLY|Rotation=90.000|XOffset=0mil|YOffset=0mil|HoleType=Round|Shape=RoundedRectangle|*
%AMROUNDEDRECTD24*
21,1,2.55905,0.27559,0,0,90.0*
21,1,2.28347,0.55118,0,0,90.0*
1,1,0.27559,0.13780,1.14173*
1,1,0.27559,0.13780,-1.14173*
1,1,0.27559,-0.13780,-1.14173*
1,1,0.27559,-0.13780,1.14173*
%
%ADD24ROUNDEDRECTD24*%
%ADD25R,0.03543X0.03937*%
%ADD26R,0.03937X0.03543*%
%ADD27R,0.05906X0.03150*%
%ADD28R,0.04331X0.03937*%
%ADD29R,0.08661X0.03937*%
%ADD30R,0.03150X0.05906*%
%ADD31R,0.03937X0.04331*%
%ADD32R,0.03937X0.08661*%
%ADD33C,0.01575*%
%ADD34C,0.09843*%
%ADD35C,0.00984*%
%ADD36C,0.12598*%
%ADD37C,0.07087*%
%ADD38R,0.07087X0.07087*%
%ADD39P,0.06392X8X292.5*%
%ADD40C,0.05906*%
%ADD41R,0.05906X0.05906*%
%ADD42R,0.05906X0.05906*%
%ADD43C,0.11811*%
%ADD44C,0.05906*%
%ADD45O,0.15748X0.07874*%
%ADD46O,0.07874X0.15748*%
%ADD47O,0.07874X0.17716*%
%ADD48C,0.03150*%
%ADD49C,0.12992*%
%ADD50C,0.03543*%
D18*
X0Y0D02*
X473000D01*
Y268000D01*
X0D02*
X473000D01*
X0Y0D02*
Y268000D01*
X31118Y151118D02*
Y258992D01*
X178362D01*
Y151118D02*
Y258992D01*
X31118Y151118D02*
X178362D01*
X183000Y0D02*
X472500D01*
Y268000D01*
X183000D02*
X472500D01*
X183000Y0D02*
Y268000D01*
D35*
X510936Y44920D02*
X509952Y45904D01*
X507984D01*
X507000Y44920D01*
Y40984D01*
X507984Y40000D01*
X509952D01*
X510936Y40984D01*
X513888Y43936D02*
X515855D01*
X516839Y42952D01*
Y40000D01*
X513888D01*
X512904Y40984D01*
X513888Y41968D01*
X516839D01*
X518807Y38032D02*
Y43936D01*
X521759D01*
X522743Y42952D01*
Y40984D01*
X521759Y40000D01*
X518807D01*
X525695Y43936D02*
X527663D01*
X528647Y42952D01*
Y40000D01*
X525695D01*
X524711Y40984D01*
X525695Y41968D01*
X528647D01*
X540454Y45904D02*
Y40000D01*
X537502D01*
X536518Y40984D01*
Y42952D01*
X537502Y43936D01*
X540454D01*
X545373Y40000D02*
X543405D01*
X542422Y40984D01*
Y42952D01*
X543405Y43936D01*
X545373D01*
X546357Y42952D01*
Y41968D01*
X542422D01*
X554229Y45904D02*
Y40000D01*
X557181D01*
X558165Y40984D01*
Y41968D01*
Y42952D01*
X557181Y43936D01*
X554229D01*
X561116Y40000D02*
X563084D01*
X564068Y40984D01*
Y42952D01*
X563084Y43936D01*
X561116D01*
X560132Y42952D01*
Y40984D01*
X561116Y40000D01*
X566036Y43936D02*
Y40000D01*
Y41968D01*
X567020Y42952D01*
X568004Y43936D01*
X568988D01*
X575875Y45904D02*
Y40000D01*
X572924D01*
X571940Y40984D01*
Y42952D01*
X572924Y43936D01*
X575875D01*
X580795Y40000D02*
X578827D01*
X577843Y40984D01*
Y42952D01*
X578827Y43936D01*
X580795D01*
X581779Y42952D01*
Y41968D01*
X577843D01*
X593586Y45904D02*
Y40000D01*
X590634D01*
X589650Y40984D01*
Y42952D01*
X590634Y43936D01*
X593586D01*
X598506Y40000D02*
X596538D01*
X595554Y40984D01*
Y42952D01*
X596538Y43936D01*
X598506D01*
X599490Y42952D01*
Y41968D01*
X595554D01*
X607361Y40000D02*
Y45904D01*
X610313D01*
X611297Y44920D01*
Y42952D01*
X610313Y41968D01*
X607361D01*
X617201Y44920D02*
X616217Y45904D01*
X614249D01*
X613265Y44920D01*
Y40984D01*
X614249Y40000D01*
X616217D01*
X617201Y40984D01*
X619168Y45904D02*
Y40000D01*
X622120D01*
X623104Y40984D01*
Y41968D01*
X622120Y42952D01*
X619168D01*
X622120D01*
X623104Y43936D01*
Y44920D01*
X622120Y45904D01*
X619168D01*
X510436Y44920D02*
X509452Y45904D01*
X507484D01*
X506500Y44920D01*
Y40984D01*
X507484Y40000D01*
X509452D01*
X510436Y40984D01*
X513387Y43936D02*
X515355D01*
X516339Y42952D01*
Y40000D01*
X513387D01*
X512404Y40984D01*
X513387Y41968D01*
X516339D01*
X518307Y38032D02*
Y43936D01*
X521259D01*
X522243Y42952D01*
Y40984D01*
X521259Y40000D01*
X518307D01*
X525195Y43936D02*
X527163D01*
X528147Y42952D01*
Y40000D01*
X525195D01*
X524211Y40984D01*
X525195Y41968D01*
X528147D01*
X539954Y45904D02*
Y40000D01*
X537002D01*
X536018Y40984D01*
Y42952D01*
X537002Y43936D01*
X539954D01*
X544873Y40000D02*
X542906D01*
X541922Y40984D01*
Y42952D01*
X542906Y43936D01*
X544873D01*
X545857Y42952D01*
Y41968D01*
X541922D01*
X553729Y45904D02*
Y40000D01*
X556681D01*
X557664Y40984D01*
Y41968D01*
Y42952D01*
X556681Y43936D01*
X553729D01*
X560616Y40000D02*
X562584D01*
X563568Y40984D01*
Y42952D01*
X562584Y43936D01*
X560616D01*
X559632Y42952D01*
Y40984D01*
X560616Y40000D01*
X565536Y43936D02*
Y40000D01*
Y41968D01*
X566520Y42952D01*
X567504Y43936D01*
X568488D01*
X575375Y45904D02*
Y40000D01*
X572424D01*
X571440Y40984D01*
Y42952D01*
X572424Y43936D01*
X575375D01*
X580295Y40000D02*
X578327D01*
X577343Y40984D01*
Y42952D01*
X578327Y43936D01*
X580295D01*
X581279Y42952D01*
Y41968D01*
X577343D01*
X593086Y45904D02*
Y40000D01*
X590134D01*
X589150Y40984D01*
Y42952D01*
X590134Y43936D01*
X593086D01*
X598006Y40000D02*
X596038D01*
X595054Y40984D01*
Y42952D01*
X596038Y43936D01*
X598006D01*
X598990Y42952D01*
Y41968D01*
X595054D01*
X606861Y40000D02*
Y45904D01*
X609813D01*
X610797Y44920D01*
Y42952D01*
X609813Y41968D01*
X606861D01*
X616701Y44920D02*
X615717Y45904D01*
X613749D01*
X612765Y44920D01*
Y40984D01*
X613749Y40000D01*
X615717D01*
X616701Y40984D01*
X618668Y45904D02*
Y40000D01*
X621620D01*
X622604Y40984D01*
Y41968D01*
X621620Y42952D01*
X618668D01*
X621620D01*
X622604Y43936D01*
Y44920D01*
X621620Y45904D01*
X618668D01*
M02*
