%FSLAX25Y25*%
%MOIN*%
G70*
G01*
G75*
G04 Layer_Color=16711935*
%ADD10O,0.08661X0.02362*%
%ADD11R,0.05709X0.02165*%
%ADD12R,0.05906X0.04331*%
%ADD13R,0.04331X0.05906*%
%ADD14O,0.05906X0.02362*%
%ADD15C,0.01969*%
%ADD16C,0.03150*%
%ADD17C,0.03937*%
%ADD18C,0.01181*%
%ADD19O,0.05512X0.01378*%
%ADD20R,0.16142X0.10236*%
%ADD21R,0.09449X0.10827*%
%ADD22R,0.04331X0.05906*%
G04:AMPARAMS|DCode=23|XSize=39.37mil|YSize=78.74mil|CornerRadius=9.84mil|HoleSize=0mil|Usage=FLASHONLY|Rotation=90.000|XOffset=0mil|YOffset=0mil|HoleType=Round|Shape=RoundedRectangle|*
%AMROUNDEDRECTD23*
21,1,0.03937,0.05906,0,0,90.0*
21,1,0.01969,0.07874,0,0,90.0*
1,1,0.01969,0.02953,0.00984*
1,1,0.01969,0.02953,-0.00984*
1,1,0.01969,-0.02953,-0.00984*
1,1,0.01969,-0.02953,0.00984*
%
%ADD23ROUNDEDRECTD23*%
G04:AMPARAMS|DCode=24|XSize=2559.05mil|YSize=551.18mil|CornerRadius=137.8mil|HoleSize=0mil|Usage=FLASHONLY|Rotation=90.000|XOffset=0mil|YOffset=0mil|HoleType=Round|Shape=RoundedRectangle|*
%AMROUNDEDRECTD24*
21,1,2.55905,0.27559,0,0,90.0*
21,1,2.28347,0.55118,0,0,90.0*
1,1,0.27559,0.13780,1.14173*
1,1,0.27559,0.13780,-1.14173*
1,1,0.27559,-0.13780,-1.14173*
1,1,0.27559,-0.13780,1.14173*
%
%ADD24ROUNDEDRECTD24*%
%ADD25R,0.03543X0.03937*%
%ADD26R,0.03937X0.03543*%
%ADD27R,0.05906X0.03150*%
%ADD28R,0.04331X0.03937*%
%ADD29R,0.08661X0.03937*%
%ADD30R,0.03150X0.05906*%
%ADD31R,0.03937X0.04331*%
%ADD32R,0.03937X0.08661*%
%ADD33C,0.01575*%
%ADD34C,0.09843*%
%ADD35C,0.00984*%
%ADD36C,0.12598*%
%ADD37C,0.07087*%
%ADD38R,0.07087X0.07087*%
%ADD39P,0.06392X8X292.5*%
%ADD40C,0.05906*%
%ADD41R,0.05906X0.05906*%
%ADD42R,0.05906X0.05906*%
%ADD43C,0.11811*%
%ADD44C,0.05906*%
%ADD45O,0.15748X0.07874*%
%ADD46O,0.07874X0.15748*%
%ADD47O,0.07874X0.17716*%
%ADD48C,0.03150*%
%ADD49C,0.12992*%
%ADD50C,0.03543*%
%ADD51C,0.01000*%
%ADD52C,0.00600*%
%ADD53C,0.00394*%
%ADD54C,0.00118*%
D17*
X401559Y166752D02*
Y176594D01*
X410220Y191358D02*
X418094D01*
X425969Y167736D02*
Y175610D01*
D51*
X6000Y261992D02*
X50528D01*
X6000Y154118D02*
X50528D01*
X7000Y235546D02*
Y261992D01*
Y154118D02*
Y177364D01*
X5000Y255992D02*
X7000Y261992D01*
X9000Y255992D01*
X7000Y154118D02*
X9000Y160118D01*
X5000D02*
X7000Y154118D01*
X199362Y121000D02*
Y152528D01*
X52118Y121000D02*
Y152528D01*
X153231Y122000D02*
X199362D01*
X52118D02*
X95049D01*
X193362Y124000D02*
X199362Y122000D01*
X193362Y120000D02*
X199362Y122000D01*
X52118D02*
X58118Y120000D01*
X52118Y122000D02*
X58118Y124000D01*
D52*
X11599Y182963D02*
Y178964D01*
X7600Y182963D01*
X6600D01*
X5601Y181963D01*
Y179964D01*
X6600Y178964D01*
X5601Y184962D02*
Y188961D01*
X6600D01*
X10599Y184962D01*
X11599D01*
X12598Y191960D02*
X11599Y192959D01*
X10599D01*
Y191960D01*
X11599D01*
Y192959D01*
X12598Y191960D01*
X13598Y190960D01*
X11599Y199957D02*
X5601D01*
X8600Y196958D01*
Y200957D01*
X6600Y202956D02*
X5601Y203956D01*
Y205955D01*
X6600Y206955D01*
X10599D01*
X11599Y205955D01*
Y203956D01*
X10599Y202956D01*
X6600D01*
X11599Y216952D02*
X9599Y214952D01*
X7600D01*
X5601Y216952D01*
X11599Y219951D02*
X7600D01*
Y220950D01*
X8600Y221950D01*
X11599D01*
X8600D01*
X7600Y222950D01*
X8600Y223950D01*
X11599D01*
Y225949D02*
X7600D01*
Y226948D01*
X8600Y227948D01*
X11599D01*
X8600D01*
X7600Y228948D01*
X8600Y229947D01*
X11599D01*
Y231947D02*
X9599Y233946D01*
X7600D01*
X5601Y231947D01*
X96649Y122400D02*
X97649Y123399D01*
X99648D01*
X100648Y122400D01*
Y121400D01*
X99648Y120400D01*
X98648D01*
X99648D01*
X100648Y119401D01*
Y118401D01*
X99648Y117401D01*
X97649D01*
X96649Y118401D01*
X102647Y123399D02*
X106646D01*
Y122400D01*
X102647Y118401D01*
Y117401D01*
X109645Y116402D02*
X110644Y117401D01*
Y118401D01*
X109645D01*
Y117401D01*
X110644D01*
X109645Y116402D01*
X108645Y115402D01*
X117642Y117401D02*
Y123399D01*
X114643Y120400D01*
X118642D01*
X120641Y122400D02*
X121641Y123399D01*
X123640D01*
X124640Y122400D01*
Y118401D01*
X123640Y117401D01*
X121641D01*
X120641Y118401D01*
Y122400D01*
X134637Y117401D02*
X132637Y119401D01*
Y121400D01*
X134637Y123399D01*
X137636Y117401D02*
Y121400D01*
X138636D01*
X139635Y120400D01*
Y117401D01*
Y120400D01*
X140635Y121400D01*
X141635Y120400D01*
Y117401D01*
X143634D02*
Y121400D01*
X144633D01*
X145633Y120400D01*
Y117401D01*
Y120400D01*
X146633Y121400D01*
X147633Y120400D01*
Y117401D01*
X149632D02*
X151631Y119401D01*
Y121400D01*
X149632Y123399D01*
D53*
X373311Y159071D02*
Y160646D01*
X372524Y159858D02*
X374098D01*
X373311Y172571D02*
Y174146D01*
X372524Y173358D02*
X374098D01*
X373311Y186071D02*
Y187646D01*
X372524Y186858D02*
X374098D01*
X373311Y199571D02*
Y201146D01*
X372524Y200358D02*
X374098D01*
D54*
X454370Y147792D02*
Y147005D01*
X453976Y146611D01*
X453583Y147005D01*
Y147792D01*
Y147201D01*
X454370D01*
X453189Y147792D02*
X452796D01*
X452993D01*
Y146611D01*
X453189D01*
X451615Y147792D02*
X452009D01*
X452205Y147595D01*
Y147201D01*
X452009Y147005D01*
X451615D01*
X451418Y147201D01*
Y147398D01*
X452205D01*
X451025Y147005D02*
Y147792D01*
Y147398D01*
X450828Y147201D01*
X450631Y147005D01*
X450434D01*
X449647Y146808D02*
Y147005D01*
X449844D01*
X449450D01*
X449647D01*
Y147595D01*
X449450Y147792D01*
X447679D02*
Y146611D01*
X447089D01*
X446892Y146808D01*
Y147201D01*
X447089Y147398D01*
X447679D01*
X445712Y146808D02*
X445908Y146611D01*
X446302D01*
X446499Y146808D01*
Y147595D01*
X446302Y147792D01*
X445908D01*
X445712Y147595D01*
X445318Y146611D02*
Y147792D01*
X444728D01*
X444531Y147595D01*
Y147398D01*
X444728Y147201D01*
X445318D01*
X444728D01*
X444531Y147005D01*
Y146808D01*
X444728Y146611D01*
X445318D01*
X442760Y147792D02*
Y146808D01*
Y147201D01*
X442956D01*
X442563D01*
X442760D01*
Y146808D01*
X442563Y146611D01*
X441776Y147005D02*
X441382D01*
X441185Y147201D01*
Y147792D01*
X441776D01*
X441972Y147595D01*
X441776Y147398D01*
X441185D01*
X440792Y146611D02*
Y147792D01*
X440202D01*
X440005Y147595D01*
Y147398D01*
Y147201D01*
X440202Y147005D01*
X440792D01*
X438234Y146808D02*
Y147005D01*
X438430D01*
X438037D01*
X438234D01*
Y147595D01*
X438037Y147792D01*
X437250D02*
X436856D01*
X436659Y147595D01*
Y147201D01*
X436856Y147005D01*
X437250D01*
X437446Y147201D01*
Y147595D01*
X437250Y147792D01*
X435085D02*
X434495D01*
X434298Y147595D01*
X434495Y147398D01*
X434888D01*
X435085Y147201D01*
X434888Y147005D01*
X434298D01*
X433904Y147792D02*
X433511D01*
X433708D01*
Y146611D01*
X433904D01*
X432724Y147792D02*
X432330D01*
X432133Y147595D01*
Y147201D01*
X432330Y147005D01*
X432724D01*
X432920Y147201D01*
Y147595D01*
X432724Y147792D01*
X431543Y146808D02*
Y147005D01*
X431740D01*
X431346D01*
X431543D01*
Y147595D01*
X431346Y147792D01*
X428788Y146611D02*
Y147792D01*
X429378D01*
X429575Y147595D01*
Y147201D01*
X429378Y147005D01*
X428788D01*
X427804Y147792D02*
X428197D01*
X428394Y147595D01*
Y147201D01*
X428197Y147005D01*
X427804D01*
X427607Y147201D01*
Y147398D01*
X428394D01*
X427017Y146808D02*
Y147005D01*
X427214D01*
X426820D01*
X427017D01*
Y147595D01*
X426820Y147792D01*
X426033Y147005D02*
X425639D01*
X425443Y147201D01*
Y147792D01*
X426033D01*
X426230Y147595D01*
X426033Y147398D01*
X425443D01*
X425049Y147792D02*
X424655D01*
X424852D01*
Y147005D01*
X425049D01*
X424065Y147792D02*
X423671D01*
X423868D01*
Y146611D01*
X424065D01*
X423081Y147792D02*
X422491D01*
X422294Y147595D01*
X422491Y147398D01*
X422884D01*
X423081Y147201D01*
X422884Y147005D01*
X422294D01*
X454370Y145823D02*
Y145036D01*
X453976Y144642D01*
X453583Y145036D01*
Y145823D01*
Y145233D01*
X454370D01*
X453189Y145823D02*
X452599D01*
X452402Y145626D01*
X452599Y145430D01*
X452993D01*
X453189Y145233D01*
X452993Y145036D01*
X452402D01*
X452009Y145823D02*
X451418D01*
X451222Y145626D01*
X451418Y145430D01*
X451812D01*
X452009Y145233D01*
X451812Y145036D01*
X451222D01*
X450828Y145823D02*
X450434D01*
X450631D01*
Y145036D01*
X450828D01*
X449450Y146217D02*
X449254D01*
X449057Y146020D01*
Y145036D01*
X449647D01*
X449844Y145233D01*
Y145626D01*
X449647Y145823D01*
X449057D01*
X448663D02*
Y145036D01*
X448073D01*
X447876Y145233D01*
Y145823D01*
X446302D02*
Y144642D01*
Y145430D02*
X445712Y145036D01*
X446302Y145430D02*
X445712Y145823D01*
X444531D02*
X444924D01*
X445121Y145626D01*
Y145233D01*
X444924Y145036D01*
X444531D01*
X444334Y145233D01*
Y145430D01*
X445121D01*
X443350Y145823D02*
X443744D01*
X443940Y145626D01*
Y145233D01*
X443744Y145036D01*
X443350D01*
X443153Y145233D01*
Y145430D01*
X443940D01*
X442760Y146217D02*
Y145036D01*
X442169D01*
X441972Y145233D01*
Y145626D01*
X442169Y145823D01*
X442760D01*
X441579Y145233D02*
X440792D01*
X440202Y145823D02*
X439808D01*
X439611Y145626D01*
Y145233D01*
X439808Y145036D01*
X440202D01*
X440398Y145233D01*
Y145626D01*
X440202Y145823D01*
X439218Y145036D02*
Y145626D01*
X439021Y145823D01*
X438430D01*
Y145036D01*
X437840Y144839D02*
Y145036D01*
X438037D01*
X437643D01*
X437840D01*
Y145626D01*
X437643Y145823D01*
X435675Y145036D02*
X435282D01*
X435085Y145233D01*
Y145823D01*
X435675D01*
X435872Y145626D01*
X435675Y145430D01*
X435085D01*
X434691Y145036D02*
Y145823D01*
Y145430D01*
X434495Y145233D01*
X434298Y145036D01*
X434101D01*
X432920Y145823D02*
X433314D01*
X433511Y145626D01*
Y145233D01*
X433314Y145036D01*
X432920D01*
X432724Y145233D01*
Y145430D01*
X433511D01*
X432133Y145036D02*
X431740D01*
X431543Y145233D01*
Y145823D01*
X432133D01*
X432330Y145626D01*
X432133Y145430D01*
X431543D01*
X429772Y144839D02*
Y145036D01*
X429969D01*
X429575D01*
X429772D01*
Y145626D01*
X429575Y145823D01*
X428788D02*
X428394D01*
X428197Y145626D01*
Y145233D01*
X428394Y145036D01*
X428788D01*
X428985Y145233D01*
Y145626D01*
X428788Y145823D01*
X426623D02*
X426033D01*
X425836Y145626D01*
X426033Y145430D01*
X426426D01*
X426623Y145233D01*
X426426Y145036D01*
X425836D01*
X425443Y145823D02*
X425049D01*
X425246D01*
Y144642D01*
X425443D01*
X424262Y145823D02*
X423868D01*
X423671Y145626D01*
Y145233D01*
X423868Y145036D01*
X424262D01*
X424459Y145233D01*
Y145626D01*
X424262Y145823D01*
X423081Y144839D02*
Y145036D01*
X423278D01*
X422884D01*
X423081D01*
Y145626D01*
X422884Y145823D01*
X454370Y149760D02*
Y148580D01*
X453976Y148973D01*
X453583Y148580D01*
Y149760D01*
X452599D02*
X452993D01*
X453189Y149563D01*
Y149170D01*
X452993Y148973D01*
X452599D01*
X452402Y149170D01*
Y149367D01*
X453189D01*
X451222Y148973D02*
X451812D01*
X452009Y149170D01*
Y149563D01*
X451812Y149760D01*
X451222D01*
X450828Y148580D02*
Y149760D01*
Y149170D01*
X450631Y148973D01*
X450238D01*
X450041Y149170D01*
Y149760D01*
X448466D02*
X448073D01*
X448270D01*
Y148580D01*
X448466Y148776D01*
X446302Y149170D02*
X445515D01*
X443153Y148776D02*
X443350Y148580D01*
X443744D01*
X443940Y148776D01*
Y148973D01*
X443744Y149170D01*
X443350D01*
X443153Y149367D01*
Y149563D01*
X443350Y149760D01*
X443744D01*
X443940Y149563D01*
X442760Y149760D02*
X442366D01*
X442563D01*
Y148580D01*
X442760D01*
X441579Y149760D02*
X441185D01*
X440989Y149563D01*
Y149170D01*
X441185Y148973D01*
X441579D01*
X441776Y149170D01*
Y149563D01*
X441579Y149760D01*
X440398Y148776D02*
Y148973D01*
X440595D01*
X440202D01*
X440398D01*
Y149563D01*
X440202Y149760D01*
X437643Y148973D02*
X438234D01*
X438430Y149170D01*
Y149563D01*
X438234Y149760D01*
X437643D01*
X437250Y148973D02*
Y149563D01*
X437053Y149760D01*
X436462D01*
Y148973D01*
X435872Y148776D02*
Y148973D01*
X436069D01*
X435675D01*
X435872D01*
Y149563D01*
X435675Y149760D01*
X435085Y149170D02*
X434298D01*
X433708Y149760D02*
X433314D01*
X433117Y149563D01*
Y149170D01*
X433314Y148973D01*
X433708D01*
X433904Y149170D01*
Y149563D01*
X433708Y149760D01*
X432724Y148973D02*
Y149563D01*
X432527Y149760D01*
X431936D01*
Y148973D01*
X431346Y148776D02*
Y148973D01*
X431543D01*
X431149D01*
X431346D01*
Y149563D01*
X431149Y149760D01*
X454370Y151729D02*
Y150548D01*
X453976Y150942D01*
X453583Y150548D01*
Y151729D01*
X452599D02*
X452993D01*
X453189Y151532D01*
Y151138D01*
X452993Y150942D01*
X452599D01*
X452402Y151138D01*
Y151335D01*
X453189D01*
X451222Y150942D02*
X451812D01*
X452009Y151138D01*
Y151532D01*
X451812Y151729D01*
X451222D01*
X450828Y150548D02*
Y151729D01*
Y151138D01*
X450631Y150942D01*
X450238D01*
X450041Y151138D01*
Y151729D01*
X447679D02*
X448466D01*
X447679Y150942D01*
Y150745D01*
X447876Y150548D01*
X448270D01*
X448466Y150745D01*
X446105Y151138D02*
X445318D01*
X442956Y150745D02*
X443153Y150548D01*
X443547D01*
X443744Y150745D01*
Y151532D01*
X443547Y151729D01*
X443153D01*
X442956Y151532D01*
X442563Y151729D02*
X442169D01*
X442366D01*
Y150548D01*
X442563D01*
X440989Y151729D02*
X441382D01*
X441579Y151532D01*
Y151138D01*
X441382Y150942D01*
X440989D01*
X440792Y151138D01*
Y151335D01*
X441579D01*
X440202Y150942D02*
X439808D01*
X439611Y151138D01*
Y151729D01*
X440202D01*
X440398Y151532D01*
X440202Y151335D01*
X439611D01*
X439218Y150942D02*
Y151729D01*
Y151335D01*
X439021Y151138D01*
X438824Y150942D01*
X438627D01*
X437840D02*
X437446D01*
X437250Y151138D01*
Y151729D01*
X437840D01*
X438037Y151532D01*
X437840Y151335D01*
X437250D01*
X436856Y151729D02*
Y150942D01*
X436266D01*
X436069Y151138D01*
Y151729D01*
X434888Y150942D02*
X435479D01*
X435675Y151138D01*
Y151532D01*
X435479Y151729D01*
X434888D01*
X433904D02*
X434298D01*
X434495Y151532D01*
Y151138D01*
X434298Y150942D01*
X433904D01*
X433708Y151138D01*
Y151335D01*
X434495D01*
X433117Y151926D02*
X432920Y151729D01*
Y151532D01*
X433117D01*
Y151729D01*
X432920D01*
X433117Y151926D01*
X433314Y152122D01*
X430953Y151729D02*
Y150942D01*
X430756D01*
X430559Y151138D01*
Y151729D01*
Y151138D01*
X430362Y150942D01*
X430165Y151138D01*
Y151729D01*
X429575D02*
X429181D01*
X428985Y151532D01*
Y151138D01*
X429181Y150942D01*
X429575D01*
X429772Y151138D01*
Y151532D01*
X429575Y151729D01*
X428591Y150942D02*
X428197Y151729D01*
X427804Y150942D01*
X426820Y151729D02*
X427213D01*
X427410Y151532D01*
Y151138D01*
X427213Y150942D01*
X426820D01*
X426623Y151138D01*
Y151335D01*
X427410D01*
X424852Y150745D02*
Y150942D01*
X425049D01*
X424655D01*
X424852D01*
Y151532D01*
X424655Y151729D01*
X423868D02*
X423475D01*
X423278Y151532D01*
Y151138D01*
X423475Y150942D01*
X423868D01*
X424065Y151138D01*
Y151532D01*
X423868Y151729D01*
X421703D02*
X421310D01*
X421507D01*
Y150942D01*
X421703D01*
X420720Y151729D02*
Y150942D01*
X420129D01*
X419932Y151138D01*
Y151729D01*
X419342Y150745D02*
Y150942D01*
X419539D01*
X419145D01*
X419342D01*
Y151532D01*
X419145Y151729D01*
X417965D02*
X418358D01*
X418555Y151532D01*
Y151138D01*
X418358Y150942D01*
X417965D01*
X417768Y151138D01*
Y151335D01*
X418555D01*
X417374Y150942D02*
Y151729D01*
Y151335D01*
X417177Y151138D01*
X416981Y150942D01*
X416784D01*
X416193Y151729D02*
Y150942D01*
X415603D01*
X415406Y151138D01*
Y151729D01*
X414816Y150942D02*
X414422D01*
X414226Y151138D01*
Y151729D01*
X414816D01*
X415013Y151532D01*
X414816Y151335D01*
X414226D01*
X413832Y151729D02*
X413439D01*
X413635D01*
Y150548D01*
X413832D01*
X411667Y152122D02*
Y150942D01*
X411077D01*
X410880Y151138D01*
Y151532D01*
X411077Y151729D01*
X411667D01*
X410487D02*
X410093D01*
X410290D01*
Y150548D01*
X410487D01*
X409306Y150942D02*
X408912D01*
X408716Y151138D01*
Y151729D01*
X409306D01*
X409503Y151532D01*
X409306Y151335D01*
X408716D01*
X408322Y151729D02*
Y150942D01*
X407732D01*
X407535Y151138D01*
Y151729D01*
X406551D02*
X406945D01*
X407141Y151532D01*
Y151138D01*
X406945Y150942D01*
X406551D01*
X406354Y151138D01*
Y151335D01*
X407141D01*
X404780Y151729D02*
X404386D01*
X404583D01*
Y150942D01*
X404780D01*
X403599Y151729D02*
Y150745D01*
Y151138D01*
X403796D01*
X403402D01*
X403599D01*
Y150745D01*
X403402Y150548D01*
X401631Y152122D02*
Y150942D01*
X401041D01*
X400844Y151138D01*
Y151532D01*
X401041Y151729D01*
X401631D01*
X400451Y150942D02*
Y151729D01*
Y151335D01*
X400254Y151138D01*
X400057Y150942D01*
X399860D01*
X398679Y151729D02*
X399073D01*
X399270Y151532D01*
Y151138D01*
X399073Y150942D01*
X398679D01*
X398483Y151138D01*
Y151335D01*
X399270D01*
X398089Y151729D02*
X397499D01*
X397302Y151532D01*
X397499Y151335D01*
X397892D01*
X398089Y151138D01*
X397892Y150942D01*
X397302D01*
X396318Y151729D02*
X396712D01*
X396908Y151532D01*
Y151138D01*
X396712Y150942D01*
X396318D01*
X396121Y151138D01*
Y151335D01*
X396908D01*
X395728Y151729D02*
Y150942D01*
X395137D01*
X394940Y151138D01*
Y151729D01*
X394350Y150745D02*
Y150942D01*
X394547D01*
X394153D01*
X394350D01*
Y151532D01*
X394153Y151729D01*
M02*
