%FSLAX25Y25*%
%MOIN*%
G70*
G01*
G75*
G04 Layer_Physical_Order=2*
G04 Layer_Color=16711680*
%ADD10O,0.08661X0.02362*%
%ADD11R,0.05709X0.02165*%
%ADD12R,0.05906X0.04331*%
%ADD13R,0.04331X0.05906*%
%ADD14O,0.05906X0.02362*%
%ADD15C,0.01969*%
%ADD16C,0.03150*%
%ADD17C,0.03937*%
%ADD18C,0.01181*%
%ADD19O,0.05512X0.01378*%
%ADD20R,0.16142X0.10236*%
%ADD21R,0.09449X0.10827*%
%ADD22R,0.04331X0.05906*%
G04:AMPARAMS|DCode=23|XSize=39.37mil|YSize=78.74mil|CornerRadius=9.84mil|HoleSize=0mil|Usage=FLASHONLY|Rotation=90.000|XOffset=0mil|YOffset=0mil|HoleType=Round|Shape=RoundedRectangle|*
%AMROUNDEDRECTD23*
21,1,0.03937,0.05906,0,0,90.0*
21,1,0.01969,0.07874,0,0,90.0*
1,1,0.01969,0.02953,0.00984*
1,1,0.01969,0.02953,-0.00984*
1,1,0.01969,-0.02953,-0.00984*
1,1,0.01969,-0.02953,0.00984*
%
%ADD23ROUNDEDRECTD23*%
G04:AMPARAMS|DCode=24|XSize=2559.05mil|YSize=551.18mil|CornerRadius=137.8mil|HoleSize=0mil|Usage=FLASHONLY|Rotation=90.000|XOffset=0mil|YOffset=0mil|HoleType=Round|Shape=RoundedRectangle|*
%AMROUNDEDRECTD24*
21,1,2.55905,0.27559,0,0,90.0*
21,1,2.28347,0.55118,0,0,90.0*
1,1,0.27559,0.13780,1.14173*
1,1,0.27559,0.13780,-1.14173*
1,1,0.27559,-0.13780,-1.14173*
1,1,0.27559,-0.13780,1.14173*
%
%ADD24ROUNDEDRECTD24*%
%ADD25R,0.03543X0.03937*%
%ADD26R,0.03937X0.03543*%
%ADD27R,0.05906X0.03150*%
%ADD28R,0.04331X0.03937*%
%ADD29R,0.08661X0.03937*%
%ADD30R,0.03150X0.05906*%
%ADD31R,0.03937X0.04331*%
%ADD32R,0.03937X0.08661*%
%ADD33C,0.01575*%
%ADD34C,0.09843*%
%ADD35C,0.00984*%
%ADD36C,0.12598*%
%ADD37C,0.07087*%
%ADD38R,0.07087X0.07087*%
%ADD39P,0.06392X8X292.5*%
%ADD40C,0.05906*%
%ADD41R,0.05906X0.05906*%
%ADD42R,0.05906X0.05906*%
%ADD43C,0.11811*%
%ADD44C,0.05906*%
%ADD45O,0.15748X0.07874*%
%ADD46O,0.07874X0.15748*%
%ADD47O,0.07874X0.17716*%
%ADD48C,0.03150*%
%ADD49C,0.12992*%
%ADD50C,0.03543*%
G36*
X471095Y1405D02*
X184405D01*
Y266595D01*
X471095D01*
Y1405D01*
D02*
G37*
%LPC*%
G36*
X439500Y109725D02*
X438188Y109596D01*
X436926Y109213D01*
X435764Y108592D01*
X434745Y107755D01*
X433908Y106736D01*
X433287Y105574D01*
X432904Y104312D01*
X432775Y103000D01*
X432904Y101688D01*
X433287Y100426D01*
X433908Y99264D01*
X434745Y98245D01*
X435764Y97408D01*
X436926Y96787D01*
X438188Y96404D01*
X439500Y96275D01*
X440812Y96404D01*
X442074Y96787D01*
X443236Y97408D01*
X444255Y98245D01*
X445092Y99264D01*
X445713Y100426D01*
X446096Y101688D01*
X446225Y103000D01*
X446096Y104312D01*
X445713Y105574D01*
X445092Y106736D01*
X444255Y107755D01*
X443236Y108592D01*
X442074Y109213D01*
X440812Y109596D01*
X439500Y109725D01*
D02*
G37*
G36*
X453272Y139707D02*
X424802D01*
Y132228D01*
X453272D01*
Y139707D01*
D02*
G37*
G36*
X412008Y35233D02*
X410696Y35104D01*
X409434Y34721D01*
X408272Y34100D01*
X407252Y33263D01*
X406416Y32244D01*
X405794Y31082D01*
X405412Y29820D01*
X405283Y28508D01*
X405412Y27196D01*
X405794Y25934D01*
X406416Y24771D01*
X407252Y23752D01*
X408272Y22916D01*
X409434Y22295D01*
X410696Y21912D01*
X412008Y21783D01*
X413320Y21912D01*
X414581Y22295D01*
X415744Y22916D01*
X416763Y23752D01*
X417600Y24771D01*
X418221Y25934D01*
X418604Y27196D01*
X418733Y28508D01*
X418604Y29820D01*
X418221Y31082D01*
X417600Y32244D01*
X416763Y33263D01*
X415744Y34100D01*
X414581Y34721D01*
X413320Y35104D01*
X412008Y35233D01*
D02*
G37*
G36*
X459272Y32707D02*
X438018D01*
Y25228D01*
X459272D01*
Y32707D01*
D02*
G37*
G36*
X325000Y224225D02*
X323688Y224096D01*
X322426Y223713D01*
X321264Y223092D01*
X320245Y222255D01*
X319408Y221236D01*
X318787Y220074D01*
X318404Y218812D01*
X318275Y217500D01*
X318404Y216188D01*
X318787Y214926D01*
X319408Y213764D01*
X320245Y212744D01*
X321264Y211908D01*
X322426Y211287D01*
X323688Y210904D01*
X325000Y210775D01*
X326312Y210904D01*
X327574Y211287D01*
X328736Y211908D01*
X329755Y212744D01*
X330592Y213764D01*
X331213Y214926D01*
X331596Y216188D01*
X331725Y217500D01*
X331596Y218812D01*
X331213Y220074D01*
X330592Y221236D01*
X329755Y222255D01*
X328736Y223092D01*
X327574Y223713D01*
X326312Y224096D01*
X325000Y224225D01*
D02*
G37*
G36*
X373272Y254707D02*
X331683D01*
Y247228D01*
X373272D01*
Y254707D01*
D02*
G37*
G36*
X406240Y211740D02*
X398760D01*
Y204260D01*
X406240D01*
Y211740D01*
D02*
G37*
G36*
X402740Y142331D02*
X395260D01*
Y134850D01*
X402740D01*
Y142331D01*
D02*
G37*
G36*
X401339Y181501D02*
X400105Y181339D01*
X398956Y180863D01*
X397969Y180106D01*
X397212Y179119D01*
X396736Y177970D01*
X396573Y176736D01*
Y166894D01*
X396736Y165660D01*
X397212Y164511D01*
X397969Y163524D01*
X398956Y162767D01*
X400105Y162291D01*
X401339Y162128D01*
X402572Y162291D01*
X403721Y162767D01*
X404708Y163524D01*
X405465Y164511D01*
X405941Y165660D01*
X406104Y166894D01*
Y176736D01*
X405941Y177970D01*
X405465Y179119D01*
X404708Y180106D01*
X403721Y180863D01*
X402572Y181339D01*
X401339Y181501D01*
D02*
G37*
%LPD*%
D35*
X457500Y27000D02*
Y30936D01*
X455532D01*
X454876Y30280D01*
Y28968D01*
X455532Y28312D01*
X457500D01*
X456188D02*
X454876Y27000D01*
X450940Y30936D02*
X453564D01*
Y28968D01*
X452252D01*
X453564D01*
Y27000D01*
X445693Y30936D02*
X444381D01*
X445037D01*
Y27000D01*
X445693D01*
X444381D01*
X442413D02*
Y30936D01*
X439789Y27000D01*
Y30936D01*
X451500Y134000D02*
Y137936D01*
X449532D01*
X448876Y137280D01*
Y135968D01*
X449532Y135312D01*
X451500D01*
X450188D02*
X448876Y134000D01*
X444940Y137936D02*
X447564D01*
Y135968D01*
X446252D01*
X447564D01*
Y134000D01*
X437725Y137936D02*
X439037D01*
X439693Y137280D01*
Y134656D01*
X439037Y134000D01*
X437725D01*
X437069Y134656D01*
Y137280D01*
X437725Y137936D01*
X435757D02*
Y134656D01*
X435101Y134000D01*
X433789D01*
X433133Y134656D01*
Y137936D01*
X431821D02*
X429198D01*
X430509D01*
Y134000D01*
X427886D02*
X426574D01*
X427230D01*
Y137936D01*
X427886Y137280D01*
X371500Y249000D02*
Y252936D01*
X369532D01*
X368876Y252280D01*
Y250968D01*
X369532Y250312D01*
X371500D01*
X370188D02*
X368876Y249000D01*
X364940Y252936D02*
X367564D01*
Y250968D01*
X366252D01*
X367564D01*
Y249000D01*
X359693D02*
Y252936D01*
X357725D01*
X357069Y252280D01*
Y250968D01*
X357725Y250312D01*
X359693D01*
X355757Y252936D02*
Y249000D01*
X354445Y250312D01*
X353133Y249000D01*
Y252936D01*
X351821Y249000D02*
Y252936D01*
X349853D01*
X349198Y252280D01*
Y250968D01*
X349853Y250312D01*
X351821D01*
X350509D02*
X349198Y249000D01*
X341982Y252936D02*
X343294D01*
X343950Y252280D01*
Y249656D01*
X343294Y249000D01*
X341982D01*
X341326Y249656D01*
Y252280D01*
X341982Y252936D01*
X340014D02*
Y249656D01*
X339358Y249000D01*
X338046D01*
X337390Y249656D01*
Y252936D01*
X336078D02*
X333454D01*
X334766D01*
Y249000D01*
D36*
X453035Y222583D02*
D03*
Y45417D02*
D03*
X19965Y222583D02*
D03*
Y45417D02*
D03*
D37*
X124500Y190000D02*
D03*
Y180000D02*
D03*
Y170000D02*
D03*
X154000Y190000D02*
D03*
Y180000D02*
D03*
Y170000D02*
D03*
D38*
X124500Y160000D02*
D03*
X154000D02*
D03*
D39*
X87500Y179000D02*
D03*
D40*
Y169000D02*
D03*
Y159000D02*
D03*
X77500Y179000D02*
D03*
Y169000D02*
D03*
Y159000D02*
D03*
X159500Y213500D02*
D03*
X412500Y208000D02*
D03*
X389000Y138591D02*
D03*
X417874Y191500D02*
D03*
X410000D02*
D03*
X425748Y167878D02*
D03*
Y175752D02*
D03*
X401339Y166894D02*
D03*
Y167681D02*
D03*
Y168468D02*
D03*
Y169256D02*
D03*
Y170043D02*
D03*
Y170831D02*
D03*
Y171618D02*
D03*
Y172406D02*
D03*
Y173193D02*
D03*
Y173980D02*
D03*
Y174768D02*
D03*
Y175555D02*
D03*
X425748Y167878D02*
D03*
Y168665D02*
D03*
Y169453D02*
D03*
Y170240D02*
D03*
Y171028D02*
D03*
Y171815D02*
D03*
Y172602D02*
D03*
Y173390D02*
D03*
Y174177D02*
D03*
Y174965D02*
D03*
X410000Y191500D02*
D03*
X410787D02*
D03*
X411575D02*
D03*
X412362D02*
D03*
X413150D02*
D03*
X413937D02*
D03*
X414724D02*
D03*
X415512D02*
D03*
X416299D02*
D03*
X417087D02*
D03*
D41*
X159500Y223500D02*
D03*
D42*
X402500Y208000D02*
D03*
X399000Y138591D02*
D03*
D43*
X429016Y11500D02*
D03*
X395000Y45516D02*
D03*
Y11500D02*
D03*
X429016Y45516D02*
D03*
X412008Y28508D02*
D03*
X325000Y217500D02*
D03*
X342008Y234508D02*
D03*
X307992Y200492D02*
D03*
Y234508D02*
D03*
X342008Y200492D02*
D03*
X456508Y85992D02*
D03*
X422492Y120008D02*
D03*
Y85992D02*
D03*
X456508Y120008D02*
D03*
X439500Y103000D02*
D03*
D44*
X401339Y176736D02*
D03*
Y166894D02*
D03*
D45*
X413937Y191500D02*
D03*
D46*
X425748Y171815D02*
D03*
D47*
X401339D02*
D03*
D48*
X275500Y234591D02*
D03*
X265500D02*
D03*
X245500D02*
D03*
X235500D02*
D03*
X255500D02*
D03*
X275500Y224590D02*
D03*
X265500D02*
D03*
X245500D02*
D03*
X235500D02*
D03*
X255500D02*
D03*
X275500Y214591D02*
D03*
X265500D02*
D03*
X245500D02*
D03*
X235500D02*
D03*
X255500D02*
D03*
X275500Y204591D02*
D03*
X265500D02*
D03*
X245500D02*
D03*
X235500D02*
D03*
X255500D02*
D03*
X275500Y194591D02*
D03*
X265500D02*
D03*
X245500D02*
D03*
X235500D02*
D03*
X255500D02*
D03*
X275500Y184591D02*
D03*
X265500D02*
D03*
X245500D02*
D03*
X235500D02*
D03*
X255500D02*
D03*
X275500Y174591D02*
D03*
X265500D02*
D03*
X245500D02*
D03*
X235500D02*
D03*
X255500D02*
D03*
X275500Y164591D02*
D03*
X265500D02*
D03*
X245500D02*
D03*
X235500D02*
D03*
X255500D02*
D03*
X275500Y154591D02*
D03*
X265500D02*
D03*
X245500D02*
D03*
X235500D02*
D03*
X255500D02*
D03*
X275500Y144591D02*
D03*
X265500D02*
D03*
X245500D02*
D03*
X235500D02*
D03*
X255500D02*
D03*
X275500Y134591D02*
D03*
X265500D02*
D03*
X245500D02*
D03*
X235500D02*
D03*
X255500D02*
D03*
X275500Y124591D02*
D03*
X265500D02*
D03*
X245500D02*
D03*
X235500D02*
D03*
X255500D02*
D03*
X275500Y114591D02*
D03*
X265500D02*
D03*
X245500D02*
D03*
X235500D02*
D03*
X255500D02*
D03*
X275500Y104591D02*
D03*
X265500D02*
D03*
X245500D02*
D03*
X235500D02*
D03*
X255500D02*
D03*
X275500Y94591D02*
D03*
X265500D02*
D03*
X245500D02*
D03*
X235500D02*
D03*
X255500D02*
D03*
X275500Y84591D02*
D03*
X265500D02*
D03*
X245500D02*
D03*
X235500D02*
D03*
X255500D02*
D03*
X275500Y74590D02*
D03*
X265500D02*
D03*
X245500D02*
D03*
X235500D02*
D03*
X255500D02*
D03*
X275500Y64591D02*
D03*
X265500D02*
D03*
X245500D02*
D03*
X235500D02*
D03*
X255500D02*
D03*
X275500Y54590D02*
D03*
X265500D02*
D03*
X245500D02*
D03*
X235500D02*
D03*
X255500D02*
D03*
X275500Y44591D02*
D03*
X265500D02*
D03*
X245500D02*
D03*
X235500D02*
D03*
X255500D02*
D03*
X275500Y34591D02*
D03*
X265500D02*
D03*
X245500D02*
D03*
X235500D02*
D03*
X255500D02*
D03*
X275500Y24590D02*
D03*
X265500D02*
D03*
X235500Y14591D02*
D03*
X245500D02*
D03*
X265500D02*
D03*
X275500D02*
D03*
X235500Y24590D02*
D03*
X245500D02*
D03*
X235500Y244590D02*
D03*
X245500D02*
D03*
X265500D02*
D03*
X275500D02*
D03*
X235500Y254591D02*
D03*
X245500D02*
D03*
X265500D02*
D03*
X275500D02*
D03*
D49*
X255500Y247779D02*
D03*
Y21402D02*
D03*
D50*
X308500Y61590D02*
D03*
X300000Y62090D02*
D03*
X292000D02*
D03*
X308500Y34091D02*
D03*
X300000D02*
D03*
X292000D02*
D03*
X329000Y70591D02*
D03*
X319500Y70091D02*
D03*
X328500Y10591D02*
D03*
X318500D02*
D03*
X300000Y125091D02*
D03*
X306000Y81590D02*
D03*
X332000Y138091D02*
D03*
X319500D02*
D03*
X309000D02*
D03*
X320000Y203000D02*
D03*
X330500D02*
D03*
X348500Y218000D02*
D03*
X342000Y27500D02*
D03*
X350000D02*
D03*
X353500Y18500D02*
D03*
X362000Y14500D02*
D03*
X370000D02*
D03*
X378500D02*
D03*
X386000D02*
D03*
X405000D02*
D03*
X414500D02*
D03*
X436000Y28500D02*
D03*
X419000Y44000D02*
D03*
X410000D02*
D03*
X403500Y53500D02*
D03*
X414500D02*
D03*
X425500D02*
D03*
X438500Y55500D02*
D03*
X445500Y61500D02*
D03*
X452000Y68500D02*
D03*
X456000Y96500D02*
D03*
Y108000D02*
D03*
X423000D02*
D03*
Y96500D02*
D03*
X411000Y82000D02*
D03*
X402000Y80000D02*
D03*
X379500Y78500D02*
D03*
X370000Y71500D02*
D03*
X363500Y65000D02*
D03*
M02*
